<?xml version="1.0" encoding="iso-8859-1"?>
<!-- Generator: Adobe Illustrator 19.0.0, SVG Export Plug-In . SVG Version: 6.00 Build 0)  -->
<svg version="1.1" id="Capa_1" xmlns="http://www.w3.org/2000/svg" xmlns:xlink="http://www.w3.org/1999/xlink" x="0px" y="0px"
	 viewBox="0 0 512 512" style="enable-background:new 0 0 512 512;" xml:space="preserve">
<g>
	<g>
		<path d="M472.405,64.448l-213.333-64c-2.005-0.597-4.117-0.597-6.123,0l-213.333,64C35.093,65.813,32,69.952,32,74.667v234.667
			c0,94.336,143.829,178.219,220.843,202.197c1.024,0.32,2.091,0.469,3.157,0.469s2.133-0.149,3.157-0.469
			C336.171,487.573,480,403.669,480,309.333V74.667C480,69.952,476.907,65.813,472.405,64.448z M437.333,309.333
			c0,54.805-93.653,126.741-177.728,157.035c-1.173,0.427-2.389,0.64-3.605,0.64c-2.176,0-4.309-0.661-6.144-1.941
			c-2.837-2.005-4.523-5.248-4.523-8.725V256h-160c-5.888,0-10.667-4.779-10.667-10.667V106.411c0-4.715,3.093-8.875,7.595-10.219
			l170.667-51.2c3.2-0.96,6.72-0.341,9.429,1.664c2.709,2.005,4.309,5.184,4.309,8.555v179.456h160
			c5.888,0,10.667,4.779,10.667,10.667V309.333z"/>
	</g>
</g>
<g>
</g>
<g>
</g>
<g>
</g>
<g>
</g>
<g>
</g>
<g>
</g>
<g>
</g>
<g>
</g>
<g>
</g>
<g>
</g>
<g>
</g>
<g>
</g>
<g>
</g>
<g>
</g>
<g>
</g>
</svg>
